# xmcd CD database file
#
# Track frame offsets:
#	150
#	32292
#	65685
#	121937
#	168582
#	216237
#	262835
#
# Disc length: 4718 seconds
#
# Revision: 6
# Processed by: cddbd v1.5.2PL0 Copyright (c) Steve Scherf et al.
# Submitted via: CDex 1.70beta2
#
DISCID=5b126c07
DTITLE=Deep Purple - Live In Japan CD 2
DYEAR=1972
DGENRE=Hard Rock
TTITLE0=Highway Star
TTITLE1=Smoke On The Water
TTITLE2=Child In Time
TTITLE3=The Mule
TTITLE4=Strange Kind Of Woman
TTITLE5=Lazy
TTITLE6=Space Truckin'
EXTD=Osaka 16th August 1972 YEAR: 1972
EXTT0=
EXTT1=
EXTT2=
EXTT3=
EXTT4=
EXTT5=
EXTT6=
PLAYORDER=
